<?xml version="1.0" encoding="utf-8"?>
<!-- Generator: Adobe Illustrator 26.5.3, SVG Export Plug-In . SVG Version: 6.00 Build 0)  -->
<svg version="1.1" id="Ebene_1" xmlns="http://www.w3.org/2000/svg" xmlns:xlink="http://www.w3.org/1999/xlink" x="0px" y="0px"
	 viewBox="0 0 512 512" style="enable-background:new 0 0 512 512;" xml:space="preserve">
<style type="text/css">
	.st0{fill:none;stroke:#D30000;stroke-width:15;stroke-miterlimit:10;}
	.st1{fill:#D30000;}
</style>
<g transform="translate(0.000000,512.000000) scale(0.100000,-0.100000)">
	<path d="M1438,5093c-76-82-157-440-212-934c-67-595-55-1030,40-1499c41-202,88-362,224-770c71-212,139-428,151-480
		c30-133,37-328,15-440c-38-189-128-444-227-642c-56-111-59-141-25-215c26-55,77-98,131-108c17-4,93,3,170,14c315,46,463,56,855,56
		s540-10,855-56c77-11,153-18,170-14c54,10,105,53,131,108c34,73,31,104-21,207c-98,195-191,458-226,640c-17,93-20,137-16,230
		c7,157,31,255,151,615c183,547,232,722,275,980c76,462,80,797,15,1374c-55,496-136,852-212,934l-26,27H2560H1464L1438,5093z
		 M3433,4593c26-139,69-446,82-580l6-73h-200c-207,0-238-5-279-43c-59-55-82-144-84-322c-1-117,3-145,35-275c65-271,73-374,31-455
		c-59-114-278-115-337-2c-42,81-35,182,30,452c34,139,37,160,35,290c-2,209-37,303-128,341c-26,11-107,14-382,14h-349l-6-74
		c-40-469,2-971,118-1422c20-77,96-319,170-539c165-493,180-559,180-760c0-130-4-164-28-259c-15-60-26-110-25-111c2-1,50,2,108,7
		c164,13,440-4,624-38c44-8,80-15,81-17c6-15,93-282,92-283s-76,5-167,13c-221,21-739,21-960,0c-91-8-166-14-167-13
		c0,0,21,67,48,147c74,224,102,372,102,554c0,246-25,353-213,914c-132,392-184,581-220,796c-81,477-60,1114,57,1738l26,137h847h847
		L3433,4593z"/>
</g>
<g>
	<path class="st0" d="M424.8,386L39.8,247.5c-6.2-2.2-9.5-9.1-7.2-15.4l37.5-104.4c2.2-6.2,9.1-9.5,15.4-7.2l384.9,138.5
		c6.2,2.2,9.5,9.1,7.2,15.4l-37.5,104.4C437.9,385,431,388.3,424.8,386z"/>
	<g>
		<path class="st1" d="M158.5,176.8l-7.6,21l-45.2-16.3l-2.4,6.7l42.3,15.2l-7.3,20.2l-42.3-15.2l-2.5,6.8l45.2,16.3l-7.6,21
			l-64.6-23.2L94,153.5L158.5,176.8z"/>
		<path class="st1" d="M224.6,223.1l-14.1,16.5c0,0-5.5-7.2-13.1-10.6c-10.5-4.7-17.4,0.1-21.3,2.5l-11.8,32.8l-19.4-7l22.5-62.5
			l1.3,0.5l0,0l18,6.5l0,0l0,0l-3.1,8.7c4.5-3.6,12-5.4,23.6-1.3C220.6,214,224.6,223.1,224.6,223.1z"/>
		<path class="st1" d="M295.4,248.6l-14.1,16.5c0,0-5.5-7.2-13.1-10.6c-10.5-4.7-17.4,0.1-21.3,2.5l-11.8,32.8l-19.4-7l22.5-62.5
			l1.3,0.5l0,0l18,6.5l0,0l0,0l-3.1,8.7c4.5-3.6,12-5.4,23.6-1.3C291.4,239.5,295.4,248.6,295.4,248.6z"/>
		<path class="st1" d="M363.4,300.8c-8.7,24.2-25.3,26.7-47.3,18.8c-22.5-8.1-32.5-20.4-23.9-44.4c9.3-25.9,27.5-25.9,46.2-19.2
			C357.4,262.8,373,274.2,363.4,300.8z M342.8,293.4c4.2-11.8-4.2-17.4-10.2-19.6c-6.1-2.2-15.7-2.3-19.5,8.3
			c-3.5,9.9-0.6,16.2,9.6,19.9C331.9,305.3,338.9,304.1,342.8,293.4z"/>
		<path class="st1" d="M443.4,301.8l-14.1,16.5c0,0-5.5-7.2-13.1-10.6c-10.5-4.7-17.4,0.1-21.3,2.5L383,343l-19.4-7l22.5-62.5
			l1.3,0.5l0,0l18,6.5l0,0l0,0l-3.1,8.7c4.5-3.6,12-5.5,23.6-1.3C439.3,292.7,443.4,301.8,443.4,301.8z"/>
	</g>
</g>
</svg>
