<?xml version="1.0" standalone="no"?>
<!DOCTYPE svg PUBLIC "-//W3C//DTD SVG 20010904//EN"
 "http://www.w3.org/TR/2001/REC-SVG-20010904/DTD/svg10.dtd">
<svg version="1.0" xmlns="http://www.w3.org/2000/svg"
 width="64.000000pt" height="64.000000pt" viewBox="0 0 64.000000 64.000000"
 preserveAspectRatio="xMidYMid meet">

<g transform="translate(0.000000,64.000000) scale(0.100000,-0.100000)"
fill="#000000" stroke="none">
<path d="M255 629 c-11 -7 -30 -24 -42 -38 -19 -23 -24 -24 -42 -13 -53 31
-101 1 -101 -63 0 -21 -6 -46 -14 -54 -52 -60 0 -122 83 -100 9 2 16 -4 18
-16 9 -52 14 -63 29 -69 8 -3 24 -1 35 4 16 9 19 22 19 75 l0 65 54 0 c57 0
99 23 111 60 5 15 15 20 44 20 44 0 61 14 61 52 0 41 -40 65 -80 48 -28 -11
-33 -10 -54 9 -28 26 -92 37 -121 20z"/>
<path d="M399 428 c-32 -33 -43 -38 -83 -38 l-46 0 0 -53 c0 -43 -5 -58 -23
-75 -13 -12 -33 -22 -44 -22 -28 0 -73 37 -73 61 0 14 -7 19 -25 19 l-25 0 0
-144 c0 -118 3 -147 16 -160 13 -13 45 -16 194 -16 218 0 210 -6 210 142 0 91
1 98 20 98 32 0 67 21 79 47 14 29 14 93 1 127 -12 34 -37 45 -106 49 -57 3
-60 2 -95 -35z m165 -20 c36 -51 8 -138 -44 -138 -18 0 -20 7 -20 80 0 78 1
80 24 80 14 0 32 -10 40 -22z"/>
</g>
</svg>
