<?xml version="1.0" encoding="UTF-8"?>
<svg id="Ebene_1" data-name="Ebene 1" xmlns="http://www.w3.org/2000/svg" viewBox="0 0 57.78 46.88">
  <path d="M45.86,5.18h5.33c3.61,0,6.59,2.9,6.59,6.59v28.54c0,3.61-2.98,6.59-6.59,6.59H6.59c-3.61,0-6.59-2.98-6.59-6.59V11.76c0-3.69,2.98-6.59,6.59-6.59h5.41c1.33-2.12,3.76-5.18,5.96-5.18h21.87c2.2,0,4.7,3.06,6.04,5.18ZM28.69,38.57c8.08,0,14.66-6.59,14.66-14.66s-6.59-14.74-14.66-14.74-14.82,6.59-14.82,14.74,6.66,14.66,14.82,14.66Zm.23-23.52c4.86,0,8.78,4,8.78,8.86s-3.92,8.78-8.78,8.78-8.86-4-8.86-8.78,4-8.86,8.86-8.86Z"/>
</svg>