<?xml version="1.0" standalone="no"?>
<!DOCTYPE svg PUBLIC "-//W3C//DTD SVG 20010904//EN"
 "http://www.w3.org/TR/2001/REC-SVG-20010904/DTD/svg10.dtd">
<svg version="1.0" xmlns="http://www.w3.org/2000/svg"
 width="64.000000pt" height="64.000000pt" viewBox="0 0 64.000000 64.000000"
 preserveAspectRatio="xMidYMid meet">

<g transform="translate(0.000000,64.000000) scale(0.100000,-0.100000)"
fill="#000000" stroke="none">
<path d="M330 481 l0 -161 156 0 157 0 -6 45 c-20 140 -126 249 -265 271 l-42
7 0 -162z m128 103 c83 -41 151 -136 152 -211 l0 -33 -130 0 -130 0 0 135 0
135 28 0 c15 0 51 -12 80 -26z"/>
<path d="M193 574 c-57 -21 -129 -86 -161 -148 -22 -42 -27 -64 -27 -126 0
-85 21 -142 74 -203 81 -91 240 -121 347 -65 91 48 164 155 164 240 l0 28
-145 0 -145 0 0 145 0 145 -32 -1 c-18 0 -52 -7 -75 -15z"/>
</g>
</svg>
